<svg width="24" height="24" viewBox="0 0 24 24" fill="none" xmlns="http://www.w3.org/2000/svg">
<path d="M2.3999 5.99961C2.3999 5.36309 2.65276 4.75264 3.10285 4.30255C3.55293 3.85247 4.16338 3.59961 4.7999 3.59961H13.1999C13.8364 3.59961 14.4469 3.85247 14.897 4.30255C15.347 4.75264 15.5999 5.36309 15.5999 5.99961V10.7996C15.5999 11.4361 15.347 12.0466 14.897 12.4967C14.4469 12.9468 13.8364 13.1996 13.1999 13.1996H10.7999L7.1999 16.7996V13.1996H4.7999C4.16338 13.1996 3.55293 12.9468 3.10285 12.4967C2.65276 12.0466 2.3999 11.4361 2.3999 10.7996V5.99961Z" fill="white"/>
<path d="M17.9999 8.39941V10.7994C17.9999 12.0725 17.4942 13.2934 16.594 14.1935C15.6939 15.0937 14.473 15.5994 13.1999 15.5994H11.7935L9.67432 17.7198C10.0103 17.8986 10.3931 17.9994 10.7999 17.9994H13.1999L16.7999 21.5994V17.9994H19.1999C19.8364 17.9994 20.4469 17.7466 20.897 17.2965C21.3471 16.8464 21.5999 16.2359 21.5999 15.5994V10.7994C21.5999 10.1629 21.3471 9.55244 20.897 9.10236C20.4469 8.65227 19.8364 8.39941 19.1999 8.39941H17.9999Z" fill="white"/>
</svg>
