<svg width="24" height="24" viewBox="0 0 24 24" fill="none" xmlns="http://www.w3.org/2000/svg">
<path d="M7.71435 4.6152C7.71435 3.39118 8.16588 2.21728 8.96961 1.35176C9.77333 0.486243 10.8634 0 12.0001 0C13.1367 0 14.2268 0.486243 15.0305 1.35176C15.8342 2.21728 16.2857 3.39118 16.2857 4.6152C16.2857 5.83923 15.8342 7.01313 15.0305 7.87864C14.2268 8.74416 13.1367 9.23041 12.0001 9.23041C10.8634 9.23041 9.77333 8.74416 8.96961 7.87864C8.16588 7.01313 7.71435 5.83923 7.71435 4.6152ZM9.42863 11.0765C8.74665 11.0765 8.0926 11.3682 7.61037 11.8875C7.12813 12.4069 6.85722 13.1112 6.85722 13.8456V18.4608C6.85722 19.9296 7.39905 21.3383 8.36352 22.3769C9.32799 23.4156 10.6361 23.9991 12.0001 23.9991C13.364 23.9991 14.6721 23.4156 15.6366 22.3769C16.6011 21.3383 17.1429 19.9296 17.1429 18.4608V13.8456C17.1429 13.1112 16.872 12.4069 16.3897 11.8875C15.9075 11.3682 15.2535 11.0765 14.5715 11.0765H9.42863ZM5.23894 12.8672C5.17465 13.1887 5.14247 13.5167 5.14294 13.8456V18.4608C5.14277 19.4488 5.32672 20.4269 5.6839 21.3369C6.04108 22.247 6.56423 23.0707 7.22236 23.7591L7.05093 23.8108C5.73381 24.1903 4.33065 23.991 3.14993 23.2567C1.9692 22.5225 1.10755 21.3134 0.754384 19.8952L0.0875298 17.2184C0.000171028 16.8671 -0.0220793 16.5007 0.0220494 16.1402C0.0661781 15.7797 0.175821 15.432 0.344719 15.1171C0.513616 14.8022 0.738459 14.5262 1.00641 14.3049C1.27436 14.0835 1.58017 13.9212 1.90638 13.8271L5.23894 12.8672ZM16.776 23.7591C17.4345 23.0708 17.9579 22.2472 18.3154 21.3372C18.6729 20.4271 18.8571 19.449 18.8572 18.4608V13.8456C18.856 13.5084 18.824 13.1823 18.7612 12.8672L22.092 13.8271C22.4184 13.9212 22.7244 14.0836 22.9925 14.305C23.2606 14.5265 23.4855 14.8027 23.6544 15.1178C23.8233 15.4329 23.9329 15.7808 23.9769 16.1415C24.0209 16.5023 23.9985 16.8688 23.9109 17.2202L23.2457 19.8952C23.0671 20.6131 22.7561 21.285 22.3312 21.8708C21.9064 22.4565 21.3764 22.9442 20.7729 23.3047C20.1693 23.6653 19.5046 23.8913 18.8182 23.9694C18.1318 24.0474 17.4362 23.9759 16.776 23.7591ZM0.000101565 7.38433C0.000101565 6.4051 0.361324 5.46599 1.0043 4.77357C1.64728 4.08116 2.51935 3.69216 3.42866 3.69216C4.33797 3.69216 5.21004 4.08116 5.85301 4.77357C6.49599 5.46599 6.85722 6.4051 6.85722 7.38433C6.85722 8.36355 6.49599 9.30266 5.85301 9.99508C5.21004 10.6875 4.33797 11.0765 3.42866 11.0765C2.51935 11.0765 1.64728 10.6875 1.0043 9.99508C0.361324 9.30266 0.000101565 8.36355 0.000101565 7.38433ZM17.1429 7.38433C17.1429 6.4051 17.5041 5.46599 18.1471 4.77357C18.7901 4.08116 19.6621 3.69216 20.5714 3.69216C21.4808 3.69216 22.3528 4.08116 22.9958 4.77357C23.6388 5.46599 24 6.4051 24 7.38433C24 8.36355 23.6388 9.30266 22.9958 9.99508C22.3528 10.6875 21.4808 11.0765 20.5714 11.0765C19.6621 11.0765 18.7901 10.6875 18.1471 9.99508C17.5041 9.30266 17.1429 8.36355 17.1429 7.38433Z" fill="white"/>
</svg>
