<svg width="23" height="23" viewBox="0 0 23 23" fill="none" xmlns="http://www.w3.org/2000/svg">
<rect width="23" height="23" />
<path d="M4.63365 11.4992H2.67188L11.4999 2.49316L20.3278 11.4992H18.3661M4.63365 11.4992V18.5039C4.63365 19.0347 4.84034 19.5437 5.20824 19.919C5.57614 20.2944 6.07513 20.5052 6.59542 20.5052H16.4043C16.9246 20.5052 17.4236 20.2944 17.7915 19.919C18.1594 19.5437 18.3661 19.0347 18.3661 18.5039V11.4992" />
<path d="M4.63365 11.4992H2.67188L11.4999 2.49316L20.3278 11.4992H18.3661V18.5039C18.3661 19.0347 18.1594 19.5437 17.7915 19.919C17.4236 20.2944 16.9246 20.5052 16.4043 20.5052H6.59542C6.07513 20.5052 5.57614 20.2944 5.20824 19.919C4.84034 19.5437 4.63365 19.0347 4.63365 18.5039V11.4992Z"  stroke-width="2" stroke-linecap="round" stroke-linejoin="round"/>
<path d="M8.55737 20.5054V14.5013C8.55737 13.9706 8.76406 13.4615 9.13196 13.0862C9.49987 12.7109 9.99885 12.5 10.5191 12.5H12.4809C13.0012 12.5 13.5002 12.7109 13.8681 13.0862C14.236 13.4615 14.4427 13.9706 14.4427 14.5013V20.5054" fill="white"/>
<path d="M8.55737 20.5054V14.5013C8.55737 13.9706 8.76406 13.4615 9.13196 13.0862C9.49987 12.7109 9.99885 12.5 10.5191 12.5H12.4809C13.0012 12.5 13.5002 12.7109 13.8681 13.0862C14.236 13.4615 14.4427 13.9706 14.4427 14.5013V20.5054"  stroke-linecap="round" stroke-linejoin="round"/>
</svg>
