<svg width="24" height="24" viewBox="0 0 24 24" fill="none" xmlns="http://www.w3.org/2000/svg">
<path d="M11.5001 1.60156C6.54275 1.60156 0.684082 3.3349 0.684082 6.80156H6.09208C6.09208 3.3349 16.9081 3.3349 16.9081 6.80156H22.3161C22.3161 3.3349 16.4574 1.60156 11.5001 1.60156ZM8.00832 7.9941L6.43098 12.4869L3.50165 13.8961C3.19796 14.0424 2.94237 14.2668 2.76322 14.5443C2.58408 14.8218 2.48838 15.1416 2.48675 15.4682V20.6682C2.48675 21.5765 3.34482 22.4016 4.28942 22.4016H18.7107C19.6553 22.4016 20.5134 21.5765 20.5134 20.6682V15.4682C20.5116 15.1421 20.416 14.8228 20.2372 14.5456C20.0584 14.2685 19.8034 14.0443 19.5003 13.8978L16.5692 12.4886L14.9936 7.99236C14.8693 7.65323 14.6414 7.3581 14.3396 7.14562C14.0379 6.93314 13.6765 6.81322 13.3027 6.80156H9.69741C9.05386 6.7825 8.2643 7.22623 8.00832 7.9941ZM0.684082 8.5349C0.684082 9.49516 1.48807 10.2682 2.48675 10.2682H4.28942C5.28809 10.2682 6.09208 9.49516 6.09208 8.5349H0.684082ZM16.9081 8.5349C16.9081 9.49516 17.7121 10.2682 18.7107 10.2682H20.5134C21.5121 10.2682 22.3161 9.49516 22.3161 8.5349H16.9081ZM11.5001 12.0016C12.4563 12.0016 13.3733 12.3668 14.0494 13.0169C14.7256 13.6671 15.1054 14.5488 15.1054 15.4682C15.1054 16.3876 14.7256 17.2694 14.0494 17.9195C13.3733 18.5697 12.4563 18.9349 11.5001 18.9349C10.5439 18.9349 9.62686 18.5697 8.95073 17.9195C8.27459 17.2694 7.89475 16.3876 7.89475 15.4682C7.89475 14.5488 8.27459 13.6671 8.95073 13.0169C9.62686 12.3668 10.5439 12.0016 11.5001 12.0016Z" fill="white"/>
</svg>
